<?xml version="1.0" encoding="utf-8"?>
<!-- Generator: Adobe Illustrator 16.0.0, SVG Export Plug-In . SVG Version: 6.00 Build 0)  -->
<!DOCTYPE svg PUBLIC "-//W3C//DTD SVG 1.1//EN" "http://www.w3.org/Graphics/SVG/1.1/DTD/svg11.dtd">
<svg version="1.1" id="Layer_1" xmlns="http://www.w3.org/2000/svg" xmlns:xlink="http://www.w3.org/1999/xlink" x="0px" y="0px"
	 width="14.17px" height="14.17px" viewBox="0 0 14.17 14.17" enable-background="new 0 0 14.17 14.17" xml:space="preserve">
<path fill="#F08080" d="M13.236,7.23c0,0.255-0.206,0.461-0.462,0.461h-0.153v0.308H1.549V7.691H1.395
	c-0.255,0-0.461-0.207-0.461-0.461S1.14,6.769,1.395,6.769h6.928c-0.005-0.05-0.008-0.102-0.008-0.154
	c0-0.765,0.619-1.384,1.384-1.384s1.384,0.62,1.384,1.384c0,0.052-0.003,0.103-0.008,0.154h1.699
	C13.03,6.769,13.236,6.975,13.236,7.23z M12.313,4.307c-0.51,0-0.923,0.414-0.923,0.923s0.413,0.923,0.923,0.923
	s0.923-0.413,0.923-0.923S12.823,4.307,12.313,4.307z M11.071,2.652c0.327,0,0.591-0.264,0.591-0.59s-0.264-0.591-0.591-0.591
	c-0.325,0-0.59,0.265-0.59,0.591S10.746,2.652,11.071,2.652z M12.646,1.181c0.327,0,0.591-0.264,0.591-0.59S12.973,0,12.646,0
	c-0.325,0-0.59,0.264-0.59,0.59S12.32,1.181,12.646,1.181z"/>
<path fill="#93CECE" d="M0.154,9.554v0.436c0,0.536,0.437,0.973,0.973,0.973h0.422v2.012c0,0.658,0.539,1.196,1.196,1.196h8.68
	c0.658,0,1.196-0.538,1.196-1.196v-2.012h0.423c0.535,0,0.972-0.437,0.972-0.973V9.554c0-0.536-0.437-0.973-0.972-0.973h-0.423
	V7.384H1.549v1.197H1.126C0.59,8.581,0.154,9.018,0.154,9.554z M12.621,10.347v-1.15h0.423c0.197,0,0.357,0.16,0.357,0.357v0.436
	c0,0.197-0.16,0.357-0.357,0.357H12.621L12.621,10.347z M0.769,9.554c0-0.197,0.16-0.357,0.357-0.357h0.422v1.15H1.126
	c-0.197,0-0.357-0.16-0.357-0.357V9.554L0.769,9.554L0.769,9.554z"/>
<g>
	<path fill="#5F9EA0" d="M0.154,9.554v0.436c0,0.536,0.437,0.973,0.973,0.973h0.422v2.012c0,0.658,0.539,1.196,1.196,1.196h8.68
		c0.658,0,1.196-0.538,1.196-1.196v-2.012h0.423c0.535,0,0.972-0.437,0.972-0.973V9.554c0-0.536-0.437-0.973-0.972-0.973h-0.423
		V7.384H5.24v4.923c0,0.34-0.275,0.615-0.615,0.615h-1.23c-0.339,0-0.615-0.275-0.615-0.615V7.384h-1.23v1.197H1.126
		C0.59,8.581,0.154,9.018,0.154,9.554z M12.621,9.196h0.423c0.197,0,0.357,0.16,0.357,0.357v0.436c0,0.197-0.16,0.357-0.357,0.357
		h-0.423V9.196z M0.769,9.554c0-0.197,0.16-0.357,0.357-0.357h0.422v1.15H1.126c-0.197,0-0.357-0.16-0.357-0.357V9.554L0.769,9.554
		L0.769,9.554z"/>
	<path fill="#5F9EA0" d="M12.647,3.24c-0.039-0.166-0.205-0.268-0.37-0.229L8.283,3.956L8.201,3.608
		c-0.124-0.522-0.648-0.846-1.17-0.723l-0.423,0.1C6.356,3.045,6.142,3.2,6.005,3.421c-0.137,0.222-0.179,0.482-0.12,0.735
		l0.083,0.348L1.974,5.448c-0.166,0.039-0.268,0.205-0.229,0.37c0.034,0.142,0.16,0.237,0.299,0.237
		c0.023,0,0.047-0.002,0.071-0.008L12.419,3.61C12.584,3.571,12.687,3.405,12.647,3.24z M6.484,4.014
		c-0.021-0.092-0.006-0.188,0.044-0.27C6.579,3.663,6.657,3.606,6.75,3.584l0.423-0.1c0.191-0.045,0.384,0.074,0.43,0.266
		l0.082,0.348L6.566,4.362L6.484,4.014z"/>
</g>
</svg>
